# Blender 3.4.0
# www.blender.org
mtllib arrow.mtl
o Arrow
v -0.411079 0.152123 5.750000
v -0.411079 -2.012940 2.000000
v -0.411079 2.317187 2.000000
v -0.411079 -0.625871 2.000000
v -0.411079 0.930118 2.000000
v -0.411079 -0.625871 -3.000000
v -0.411079 0.930118 -3.000000
v 0.411079 0.152123 5.750000
v 0.411079 -2.012940 2.000000
v 0.411079 2.317187 2.000000
v 0.411079 -0.625871 2.000000
v 0.411079 0.930118 2.000000
v 0.411079 -0.625871 -3.000000
v 0.411079 0.930118 -3.000000
vn -1.0000 -0.0000 -0.0000
vn 1.0000 -0.0000 -0.0000
vn -0.0000 -0.0000 -1.0000
vn -0.0000 -0.0000 1.0000
vn -0.0000 1.0000 -0.0000
vn -0.0000 -0.8660 0.5000
vn -0.0000 -1.0000 -0.0000
vn -0.0000 0.8660 0.5000
vt 0.000000 0.000000
vt 0.000000 0.000000
vt 0.000000 0.000000
vt 0.000000 0.000000
vt 0.000000 0.000000
vt 0.000000 0.000000
vt 0.000000 0.000000
vt 0.000000 0.000000
vt 0.000000 0.000000
vt 0.000000 0.000000
vt 0.000000 0.000000
vt 0.000000 0.000000
vt 0.000000 0.000000
vt 0.000000 0.000000
s 0
f 3/3/1 2/2/1 1/1/1
f 6/6/2 7/7/2 5/5/2 4/4/2
f 10/10/2 8/8/2 9/9/2
f 13/13/1 11/11/1 12/12/1 14/14/1
f 3/3/3 10/10/3 9/9/3 2/2/3
f 6/6/4 13/13/4 14/14/4 7/7/4
f 4/4/5 11/11/5 13/13/5 6/6/5
f 2/2/6 9/9/6 8/8/6 1/1/6
f 5/5/3 12/12/3 11/11/3 4/4/3
f 7/7/7 14/14/7 12/12/7 5/5/7
f 1/1/8 8/8/8 10/10/8 3/3/8
