# Alias OBJ Model File
# Exported from SketchUp, (c) 2000-2012 Trimble Navigation Limited
# File units = centimeters

mtllib Primo Floor Plan.mtl

g Mesh1 Group1 Model

usemtl Polished_Concrete_New
v 524.866 0 -1197.91
vt -146.327 100.709
vn 0 -1 -0
v 536.595 0 -1197.91
vt -150.945 100.709
v 536.595 0 -942.503
vt -150.945 0.153476
v 153.195 0 -942.503
vt 0 0.153476
v 153.195 0 -955.113
vt 0 5.11811
v 524.866 0 -955.113
vt -146.327 5.11811
f 1/1/1 2/2/1 3/3/1 4/4/1 5/5/1 6/6/1 

vt -150.945 0
vn 0 0 -1
vt -146.327 0
v 524.866 403.86 -1197.91
vt -146.327 159
v 536.595 403.86 -1197.91
vt -150.945 159
f 2/7/2 1/8/2 7/9/2 8/10/2 

vt -100.709 0
vn -1 0 -0
vt -5.11811 0
v 524.866 403.86 -955.113
vt -5.11811 159
vt -100.709 159
f 1/11/3 6/12/3 9/13/3 7/14/3 

vt 0 0
v 153.195 403.86 -955.113
vt 0 159
f 6/8/2 5/15/2 10/16/2 9/9/2 

vt -0.153476 0
v 153.195 403.86 -942.503
vt -0.153476 159
f 5/12/3 4/17/3 11/18/3 10/13/3 

v 881.095 0 -942.503
vt 286.575 0
vn 0 0 1
v 881.095 403.86 -942.503
vt 286.575 159
vt 150.945 0
v 536.595 210 -942.503
vt 150.945 82.6772
v 627.095 210 -942.503
vt 186.575 82.6772
v 627.095 0 -942.503
vt 186.575 0
f 12/19/4 13/20/4 11/16/4 4/15/4 3/21/4 14/22/4 15/23/4 16/24/4 

vt 0.153476 0
vn 1 0 -0
v 881.095 0 -955.113
vt 5.11811 0
v 881.095 403.86 -955.113
vt 5.11811 159
vt 0.153476 159
f 12/25/5 17/26/5 18/27/5 13/28/5 

v 871.146 0 -955.113
vt -282.658 5.11811
vt -286.575 5.11811
vt -286.575 0.153476
vt -186.575 0.153476
v 627.095 0 -1019.54
vt -186.575 30.4822
v 637.695 0 -1019.54
vt -190.748 30.4822
v 637.695 0 -955.113
vt -190.748 5.11811
v 780.395 0 -955.113
vt -246.929 5.11811
v 780.395 0 -1197.91
vt -246.929 100.709
v 871.146 0 -1197.91
vt -282.658 100.709
f 19/29/1 17/30/1 12/31/1 16/32/1 20/33/1 21/34/1 22/35/1 23/36/1 24/37/1 25/38/1 

vt -286.575 0
vt -282.658 0
v 871.146 403.86 -955.113
vt -282.658 159
vt -286.575 159
f 17/39/2 19/40/2 26/41/2 18/42/2 

vt 100.709 0
v 871.146 403.86 -1197.91
vt 100.709 159
f 19/26/5 25/43/5 27/44/5 26/27/5 

vt -246.929 0
v 780.395 403.86 -1197.91
vt -246.929 159
f 25/40/2 24/45/2 28/46/2 27/41/2 

v 780.395 403.86 -955.113
f 24/11/3 23/12/3 29/13/3 28/14/3 

vt -190.748 0
v 637.695 403.86 -955.113
vt -190.748 159
f 23/45/2 22/47/2 30/48/2 29/46/2 

vt 30.4822 0
v 637.695 403.86 -1019.54
vt 30.4822 159
f 22/26/5 21/49/5 31/50/5 30/27/5 

vt -186.575 0
v 627.095 403.86 -1019.54
vt -186.575 159
f 21/47/2 20/51/2 32/52/2 31/48/2 

vt -0.153476 -3.81987e-14
vn -1 -2.04736e-16 -1.42697e-15
vt -0.153476 82.6772
v 627.095 210 -955.113
vt -5.11811 82.6772
v 627.095 403.86 -955.113
vt -30.4822 159
vt -30.4822 -3.81987e-14
f 16/53/6 15/54/6 33/55/6 34/13/6 32/56/6 20/57/6 

vn -5.77102e-33 -1 2.86242e-15
v 536.595 210 -955.113
vt -150.945 5.11811
vt -186.575 5.11811
f 14/3/7 35/58/7 33/59/7 15/32/7 

v 536.595 403.86 -955.113
vt 5.11811 82.6772
vt 0.153476 82.6772
f 8/44/5 36/27/5 35/60/5 14/61/5 3/25/5 2/43/5 

vt 146.327 100.709
vn 0 1 -0
vt 146.327 5.11811
vt 286.575 0.153476
vt 286.575 5.11811
vt 282.658 5.11811
vt 282.658 100.709
vt 246.929 100.709
vt 246.929 5.11811
vt 190.748 5.11811
vt 190.748 30.4822
vt 186.575 30.4822
vt 186.575 5.11811
vt 150.945 5.11811
vt 150.945 100.709
f 7/62/8 9/63/8 10/5/8 11/4/8 13/64/8 18/65/8 26/66/8 27/67/8 28/68/8 29/69/8 30/70/8 31/71/8 32/72/8 34/73/8 36/74/8 8/75/8 

vt -150.945 82.6772
vt -186.575 82.6772
f 35/76/2 36/10/2 34/52/2 33/77/2 

g Mesh2 Group2 Model

v 1297.99 0 -1009.07
vt 460.559 352.879
v 1297.99 0 -879.071
vt 460.559 301.698
v 1320.29 0 -879.071
vt 469.338 301.698
v 1320.29 0 -1009.07
vt 469.338 352.879
f 37/78/8 38/79/8 39/80/8 40/81/8 

usemtl Brick_Antique_01
vt -8.09204 0
vt -7.94067 0
v 1297.99 403.86 -879.071
vt -7.94067 4.2973
v 1320.29 403.86 -879.071
vt -8.09204 4.2973
f 39/82/2 38/83/2 41/84/2 42/85/2 

usemtl Polished_Concrete_Old
vt -8.38049 0
v 1297.99 0 -861.413
vt -8.18739 0
v 1297.99 403.86 -861.413
vt -8.18739 4.41667
vt -8.38049 4.41667
f 38/86/3 43/87/3 44/88/3 41/89/3 

vt -12.7933 0
v 1128.69 0 -861.413
vt -10.9418 0
v 1128.69 403.86 -861.413
vt -10.9418 4.41667
vt -12.7933 4.41667
f 43/90/2 45/91/2 46/92/2 44/93/2 

vt 8.18739 0
v 1128.69 0 -869.313
vt 8.27378 0
v 1128.69 403.86 -869.313
vt 8.27378 4.41667
vt 8.18739 4.41667
f 45/94/5 47/95/5 48/96/5 46/97/5 

v 1078.59 0 -869.313
vt -10.3939 0
v 1078.59 403.86 -869.313
vt -10.3939 4.41667
f 47/91/2 49/98/2 50/99/2 48/92/2 

vt -8.27378 0
v 1078.59 0 -175.213
vt -0.683011 0
v 1078.59 403.86 -175.213
vt -0.683011 4.41667
vt -8.27378 4.41667
f 49/100/3 51/101/3 52/102/3 50/103/3 

v 641.195 0 -175.213
vt -5.61045 0
v 641.195 403.86 -175.213
vt -5.61045 4.41667
f 51/98/2 53/104/2 54/105/2 52/99/2 

vt 0.683011 0
v 641.195 0 -495.913
vt 4.19023 0
v 641.195 403.86 -495.913
vt 4.19023 4.41667
vt 0.683011 4.41667
f 53/106/5 55/107/5 56/108/5 54/109/5 

v 153.195 0 -495.913
vt -0.273612 0
v 153.195 403.86 -495.913
vt -0.273612 4.41667
f 55/104/2 57/110/2 58/111/2 56/105/2 

v 153.195 0 -1197.91
vt 11.8674 0
v 153.195 403.86 -1197.91
vt 11.8674 4.41667
f 58/108/5 57/107/5 59/112/5 60/113/5 

vt 0.273612 0
v 780.395 0 -1197.91
vt 7.13275 0
v 780.395 403.86 -1197.91
vt 7.13275 4.41667
vt 0.273612 4.41667
f 59/114/4 61/115/4 62/116/4 60/117/4 

v 1064.39 0 -1197.91
vt 10.2386 0
v 1064.39 403.86 -1197.91
vt 10.2386 4.41667
f 61/115/4 63/118/4 64/119/4 62/116/4 

vt -11.8674 0
v 1064.39 0 -1157.01
vt -11.4201 0
v 1064.39 403.86 -1157.01
vt -11.4201 4.41667
vt -11.8674 4.41667
f 63/120/3 65/121/3 66/122/3 64/123/3 

v 1083.98 0 -1157.01
vt 10.4528 0
v 1083.98 403.86 -1157.01
vt 10.4528 4.41667
f 65/118/4 67/124/4 68/125/4 66/119/4 

vt 11.4201 0
v 1083.98 0 -1167.11
vt 11.5306 0
v 1083.98 403.86 -1167.11
vt 11.5306 4.41667
vt 11.4201 4.41667
f 67/126/5 69/127/5 70/128/5 68/129/5 

usemtl Brick_Antique_01
vt -6.48792 0
v 1076.18 0 -1167.11
vt -6.43497 0
v 1076.18 403.86 -1167.11
vt -6.43497 4.2973
vt -6.48792 4.2973
f 69/130/2 71/131/2 72/132/2 70/133/2 

vt 7.1569 0
v 1076.18 0 -1197.91
vt 7.36597 0
v 1076.18 403.86 -1197.91
vt 7.36597 4.2973
vt 7.1569 4.2973
f 71/134/5 73/135/5 74/136/5 72/137/5 

vt 6.43497 0
v 1097.08 0 -1197.91
vt 6.57684 0
v 1097.08 403.86 -1197.91
vt 6.57684 4.2973
vt 6.43497 4.2973
f 73/138/4 75/139/4 76/140/4 74/141/4 

v 1097.08 0 -1220.71
vt 7.52073 0
v 1097.08 403.86 -1220.71
vt 7.52073 4.2973
f 75/135/5 77/142/5 78/143/5 76/136/5 

vt -6.57684 4.2973
vt -6.57684 0
v 100.576 0 -1220.71
vt 0.187347 0
v 100.576 403.86 -1220.71
vt 0.187347 4.2973
f 78/144/2 77/145/2 79/146/2 80/147/2 

usemtl Polished_Concrete_New
vt -436.203 0
v 100.576 0 -1198.07
vt -427.29 0
v 100.576 403.86 -1198.07
vt -427.29 159
vt -436.203 159
f 79/148/3 81/149/3 82/150/3 80/151/3 

usemtl Brick_Antique_01
vt -0.187347 4.2973
vt -0.187347 0
v 143.065 0 -1198.07
vt 0.101071 0
v 143.065 403.86 -1198.07
vt 0.101071 4.2973
f 82/152/4 81/153/4 83/154/4 84/155/4 

vt -7.36706 4.2973
vt -7.36706 0
v 143.065 0 -428.875
vt -2.14578 0
v 143.065 403.86 -428.875
vt -2.14578 4.2973
f 84/156/3 83/157/3 85/158/3 86/159/3 

v 153.865 0 -428.875
vt 0.17438 0
v 153.865 403.86 -428.875
vt 0.17438 4.2973
f 85/154/4 87/160/4 88/161/4 86/155/4 

vt 2.14578 0
v 153.865 0 -484.475
vt 2.52319 0
v 153.865 403.86 -484.475
vt 2.52319 4.2973
vt 2.14578 4.2973
f 87/162/5 89/163/5 90/164/5 88/165/5 

v 630.765 0 -484.475
vt 3.41155 0
v 630.765 403.86 -484.475
vt 3.41155 4.2973
f 89/160/4 91/166/4 92/167/4 90/161/4 

vt -2.52319 0
v 630.765 0 -164.775
vt -0.353081 0
v 630.765 403.86 -164.775
vt -0.353081 4.2973
vt -2.52319 4.2973
f 91/168/3 93/169/3 94/170/3 92/171/3 

vt 3.41155 -2.27567e-33
vn 1.54531e-16 -4.11158e-33 1
v 1113.7 0 -164.775
vt 6.68967 -2.27567e-33
v 1113.7 403.86 -164.775
vt 6.68967 4.2973
f 93/172/9 95/173/9 96/174/9 94/167/9 

v 1113.7 0 -126.475
vt -0.0931032 0
v 1113.7 403.86 -126.475
vt -0.0931032 4.2973
f 95/169/3 97/175/3 98/176/3 96/170/3 

vt 6.68967 0
v 1136.19 0 -126.475
vt 6.84238 0
v 1136.19 403.86 -126.475
vt 6.84238 4.2973
f 97/177/4 99/178/4 100/179/4 98/174/4 

vt 0.0931032 0
v 1136.19 0 -838.813
vt 4.92842 0
v 1136.19 403.86 -838.813
vt 4.92842 4.2973
vt 0.0931032 4.2973
f 99/180/5 101/181/5 102/182/5 100/183/5 

v 1320.29 0 -838.813
vt 8.09204 0
v 1320.29 403.86 -838.813
vt 8.09204 4.2973
f 101/178/4 103/184/4 104/185/4 102/179/4 

vt 5.20169 0
vt 5.20169 4.2973
f 103/181/5 39/186/5 42/187/5 104/182/5 

usemtl Polished_Concrete_New
vt 469.338 285.848
vt 460.559 294.746
vt 393.905 294.746
vt 393.905 297.856
vt 374.181 297.856
vt 374.181 24.5884
vt 201.976 24.5884
vt 201.976 150.848
vt 9.85005 150.848
vt 9.85005 427.226
vt 256.779 427.226
vt 368.59 427.226
vt 368.59 411.124
vt 376.299 411.124
vt 376.299 415.1
vt 373.228 415.1
vt 373.228 427.226
vt 381.457 427.226
vt 381.457 436.203
vt -10.8661 436.203
vt -10.8661 427.29
vt 5.8621 427.29
vt 5.8621 124.455
vt 10.1141 124.455
vt 10.1141 146.345
vt 197.87 146.345
vt 197.87 20.4787
vt 388.001 20.4787
vt 388.001 5.39998
vt 396.858 5.39998
vt 396.858 285.848
f 104/188/8 42/80/8 41/79/8 44/189/8 46/190/8 48/191/8 50/192/8 52/193/8 54/194/8 56/195/8 58/196/8 60/197/8 62/198/8 64/199/8 66/200/8 68/201/8 70/202/8 72/203/8 74/204/8 76/205/8 78/206/8 80/207/8 82/208/8 84/209/8 86/210/8 88/211/8 90/212/8 92/213/8 94/214/8 96/215/8 98/216/8 100/217/8 102/218/8 

vt 460.559 0
vt 469.338 0
v 1320.29 403.86 -1009.07
vt 469.338 159
v 1297.99 403.86 -1009.07
vt 460.559 159
f 37/219/4 40/220/4 105/221/4 106/222/4 

usemtl Brick_Antique_01
v 1320.29 403.86 -1051.11
vt 6.36948 4.2973
vt 6.08412 4.2973
vt 6.08412 0
v 1320.29 0 -1051.11
vt 6.36948 0
f 107/223/5 105/224/5 40/225/5 108/226/5 

usemtl Polished_Concrete_New
vt 469.338 369.43
v 1297.99 403.86 -1051.11
vt 460.559 369.43
f 105/81/8 107/227/8 109/228/8 106/78/8 

usemtl Brick_Antique_01
v 1297.99 0 -1051.11
f 108/82/2 110/83/2 109/84/2 107/85/2 

usemtl Polished_Concrete_New
v 1320.29 0 -1181.15
vt 469.338 420.628
v 1297.99 0 -1181.15
vt 460.559 420.628
v 1297.99 0 -1084.51
vt 460.559 382.581
f 108/227/8 111/229/8 112/230/8 113/231/8 110/228/8 

v 1320.29 403.86 -1181.15
v 1297.99 403.86 -1181.15
f 112/219/4 111/220/4 114/221/4 115/222/4 

usemtl Brick_Antique_01
vt 7.25221 0
v 1320.29 0 -1328.41
vt 8.2518 0
v 1320.29 403.86 -1328.41
vt 8.2518 4.2973
vt 7.25221 4.2973
f 111/232/5 116/233/5 117/234/5 114/235/5 

v 1297.69 0 -1328.41
vt -7.93863 0
v 1297.69 403.86 -1328.41
vt -7.93863 4.2973
f 116/82/2 118/236/2 119/237/2 117/85/2 

vt -8.2518 0
v 1297.69 0 -1220.21
vt -7.51734 0
v 1297.69 403.86 -1220.21
vt -7.51734 4.2973
vt -8.2518 4.2973
f 118/238/3 120/239/3 121/240/3 119/241/3 

v 1272.09 0 -1220.21
vt -7.76486 0
v 1272.09 403.86 -1220.21
vt -7.76486 4.2973
f 120/236/2 122/242/2 123/243/2 121/237/2 

v 1272.09 0 -1167.31
vt -7.15826 0
v 1272.09 403.86 -1167.31
vt -7.15826 4.2973
f 122/239/3 124/244/3 125/245/3 123/240/3 

v 1265.09 0 -1167.31
vt -7.71734 0
v 1265.09 403.86 -1167.31
vt -7.71734 4.2973
f 124/242/2 126/246/2 127/247/2 125/243/2 

usemtl Polished_Concrete_Old
vt -11.5327 0
v 1265.09 0 -1155.51
vt -11.4037 0
v 1265.09 403.86 -1155.51
vt -11.4037 4.41667
vt -11.5327 4.41667
f 126/248/3 128/249/3 129/250/3 127/251/3 

usemtl Polished_Concrete_New
vt 447.606 0
v 1285.09 0 -1155.51
vt 455.48 0
v 1285.09 403.86 -1155.51
vt 455.48 159
vt 447.606 159
f 128/252/4 130/253/4 131/254/4 129/255/4 

vt 410.533 0
v 1285.09 0 -1198.11
vt 427.305 0
v 1285.09 403.86 -1198.11
vt 427.305 159
vt 410.533 159
f 130/256/5 132/257/5 133/258/5 131/259/5 

v 1297.99 0 -1198.11
v 1297.99 403.86 -1198.11
f 132/253/4 134/219/4 135/222/4 133/254/4 

vt -427.305 0
vt -420.628 0
vt -420.628 159
vt -427.305 159
f 134/260/3 112/261/3 115/262/3 135/263/3 

vt 460.559 427.305
vt 469.338 478.604
vt 460.441 478.604
vt 460.441 436.006
vt 450.362 436.006
vt 450.362 415.179
vt 447.606 415.179
vt 447.606 410.533
vt 455.48 410.533
vt 455.48 427.305
f 135/264/8 115/230/8 114/229/8 117/265/8 119/266/8 121/267/8 123/268/8 125/269/8 127/270/8 129/271/8 131/272/8 133/273/8 

usemtl Polished_Concrete_Old
vt -10.2619 0
vt -9.80219 0
vt -9.80219 4.41667
vt -10.2619 4.41667
f 110/274/3 37/275/3 106/276/3 109/277/3 

g Mesh3 Finestra1 Model

usemtl Translucent_Glass_Safety
v 1309.14 396.578 -886.353
vt 58.1596 26.0222
v 1309.14 7.28179 -886.353
vt 58.1596 0.477808
v 1309.14 7.28179 -1001.79
vt 65.7342 0.477808
v 1309.14 396.578 -1001.79
vt 65.7342 26.0222
f 136/278/5 137/279/5 138/280/5 139/281/5 

usemtl Metal_Silver
vt 0 0.238904
vt 0 13.0111
v 1311.64 396.578 -886.353
vt -0.082021 13.0111
v 1311.64 7.28179 -886.353
vt -0.082021 0.238904
f 137/282/2 136/283/2 140/284/2 141/285/2 

v 1306.64 7.28179 -886.353
vt 0.082021 0.238904
v 1306.64 396.578 -886.353
vt 0.082021 13.0111
f 136/283/2 137/282/2 142/286/2 143/287/2 

vt 0 4.02619
v 1306.64 7.28179 -1001.79
vt -0.082021 4.02619
f 137/282/8 138/288/8 144/289/8 142/285/8 

v 1311.64 7.28179 -1001.79
vt 0.082021 4.02619
f 138/288/8 137/282/8 141/286/8 145/290/8 

vt 0.238904 0.238904
v 1311.64 0 -1009.07
vt 4.2651 0
vt 4.02619 0.238904
f 141/291/5 146/292/5 145/293/5

v 1311.64 0 -879.071
f 141/291/5 147/15/5 146/292/5

v 1311.64 403.86 -879.071
vt 0 13.25
f 147/15/5 141/291/5 148/294/5

vt 0.238904 13.0111
f 140/295/5 148/294/5 141/291/5

v 1311.64 403.86 -1009.07
vt 4.2651 13.25
f 148/294/5 140/295/5 149/296/5

v 1311.64 396.578 -1001.79
vt 4.02619 13.0111
f 149/296/5 140/295/5 150/297/5

f 136/282/1 139/288/1 150/289/1 140/285/1 

v 1306.64 396.578 -1001.79
f 139/288/1 136/282/1 143/286/1 151/290/1 

vt -0.238904 13.0111
v 1306.64 403.86 -1009.07
vt -4.2651 13.25
vt -4.02619 13.0111
f 143/298/3 152/299/3 151/300/3

v 1306.64 403.86 -879.071
f 143/298/3 153/294/3 152/299/3

v 1306.64 0 -879.071
f 153/294/3 143/298/3 154/15/3

vt -0.238904 0.238904
f 142/301/3 154/15/3 143/298/3

v 1306.64 0 -1009.07
vt -4.2651 0
f 154/15/3 142/301/3 155/302/3

vt -4.02619 0.238904
f 155/302/3 142/301/3 144/303/3

f 155/302/3 144/303/3 152/299/3

f 151/300/3 152/299/3 144/303/3

f 138/282/4 139/283/4 151/284/4 144/285/4 

f 139/283/4 138/282/4 145/286/4 150/287/4 

f 145/293/5 146/292/5 150/297/5

f 149/296/5 150/297/5 146/292/5

vt -0.082021 0
vt 0.082021 0
vt 0.082021 13.25
vt -0.082021 13.25
f 146/304/2 155/305/2 152/306/2 149/307/2 

usemtl Translucent_Glass_Safety
vt -86.0659 57.6818
vt -85.7379 57.6818
vt -85.7379 66.212
vt -86.0659 66.212
f 147/308/1 154/309/1 155/310/1 146/311/1 

usemtl Metal_Silver
f 148/306/4 153/307/4 154/304/4 147/305/4 

vt 0.082021 4.2651
vt -0.082021 4.2651
f 149/312/8 152/313/8 153/304/8 148/305/8 

g Mesh4 Finestra2 Model

usemtl Translucent_Glass_Safety
v 1309.14 396.578 -1058.39
v 1309.14 7.28179 -1058.39
v 1309.14 7.28179 -1173.83
v 1309.14 396.578 -1173.83
f 156/278/5 157/279/5 158/280/5 159/281/5 

usemtl Metal_Silver
v 1311.64 396.578 -1058.39
v 1311.64 7.28179 -1058.39
f 157/282/2 156/283/2 160/284/2 161/285/2 

v 1306.64 7.28179 -1058.39
v 1306.64 396.578 -1058.39
f 156/283/2 157/282/2 162/286/2 163/287/2 

v 1306.64 7.28179 -1173.83
f 157/282/8 158/288/8 164/289/8 162/285/8 

v 1311.64 7.28179 -1173.83
f 158/288/8 157/282/8 161/286/8 165/290/8 

v 1311.64 0 -1181.11
f 161/291/5 166/292/5 165/293/5

v 1311.64 0 -1051.11
f 161/291/5 167/15/5 166/292/5

v 1311.64 403.86 -1051.11
f 167/15/5 161/291/5 168/294/5

f 160/295/5 168/294/5 161/291/5

v 1311.64 403.86 -1181.11
f 168/294/5 160/295/5 169/296/5

v 1311.64 396.578 -1173.83
f 169/296/5 160/295/5 170/297/5

f 156/282/1 159/288/1 170/289/1 160/285/1 

v 1306.64 396.578 -1173.83
f 159/288/1 156/282/1 163/286/1 171/290/1 

v 1306.64 403.86 -1181.11
f 163/298/3 172/299/3 171/300/3

v 1306.64 403.86 -1051.11
f 163/298/3 173/294/3 172/299/3

v 1306.64 0 -1051.11
f 173/294/3 163/298/3 174/15/3

f 162/301/3 174/15/3 163/298/3

v 1306.64 0 -1181.11
f 174/15/3 162/301/3 175/302/3

f 175/302/3 162/301/3 164/303/3

f 175/302/3 164/303/3 172/299/3

f 171/300/3 172/299/3 164/303/3

f 158/282/4 159/283/4 171/284/4 164/285/4 

f 159/283/4 158/282/4 165/286/4 170/287/4 

f 165/293/5 166/292/5 170/297/5

f 169/296/5 170/297/5 166/292/5

f 166/304/2 175/305/2 172/306/2 169/307/2 

usemtl Translucent_Glass_Safety
f 167/308/1 174/309/1 175/310/1 166/311/1 

usemtl Metal_Silver
f 168/306/4 173/307/4 174/304/4 167/305/4 

f 169/312/8 172/313/8 173/304/8 168/305/8 

g Mesh5 Model

usemtl Red_Head_Floor_Plan_1500_px_2022
v 1.9 0 7.21911e-14
vt -4.33681e-19 0
v 1361.36 0 7.21911e-14
vt 1 0
v 1361.36 0 -1391.83
vt 1 1
v 1.9 0 -1391.83
vt -4.33681e-19 1
f 176/314/8 177/315/8 178/316/8 179/317/8 

